<svg xmlns="http://www.w3.org/2000/svg" viewBox="438 334 102 125" role="img" aria-label="HURKA! favicon">
  <rect x="438" y="334" width="102" height="125" rx="18" fill="#203863"/>
  <path fill="#fae04a" d="M510,420.19c9.04-28.63,20.02-56.54,29.52-85.02-13.48-.6-20.19-.35-33.38,1.19-4.84,7.8-8.98,15.41-12.47,22.87,7.85-1.63,15.95-2.86,24.69-3.65-8.1,9.38-14.71,18.6-19.74,27.42.04.04.08.07.12.11,4.67-.61,9.56-1.12,14.81-1.49.03.04.06.08.09.12-11.95,12.49-19.2,24.68-24.37,35.65,8.12.9,11.85,1.49,20.7,2.79Z"/>
  <path fill="#fae04a" d="M501.41,432.76c-2.86-4.33-7.13-6.89-12.46-7.83-5.17-.91-9.8,0-13.36,2.22-3.51,2.19-4.79,5.03-4.18,8.91.6,3.81,2.78,7.66,6.16,12.03,3.52,4.3,7.23,7.7,11.21,9.79,3.98,2.08,7.16,2.28,10.01.2,2.8-2.04,4.56-5.78,5.32-10.84.79-5.26.16-10.19-2.68-14.49Z"/>
  <path fill="#fae04a" d="M491.58,393.84c-3.76.57-7.35,1.2-11.1,1.92.82-6.73,1.89-13.57,3.33-20.7-5.92,1.34-11.74,2.85-17.82,4.57-.07-.35-.15-.65-.19-.96-.46-3.35-.86-6.73-1.26-10.15-.34-2.97-.71-5.96-.99-8.99-.39-4.35-.7-8.77-.92-13.27-6.79,2.34-10.13,3.66-16.68,6.57,7.28,21.06,15.95,41.59,22.11,63.04,8.98.29,12.71.61,20.18,1.41.84-7.63,1.9-15.41,3.34-23.45Z"/>
</svg>
