<?xml version="1.0" encoding="UTF-8"?>
<svg id="Livello_1" xmlns="http://www.w3.org/2000/svg" version="1.1" viewBox="0 0 595.28 841.89">
  <!-- Generator: Adobe Illustrator 30.2.1, SVG Export Plug-In . SVG Version: 2.1.1 Build 1)  -->
  <defs>
    <style>
      .st0 {
        fill: #304f4f;
      }

      .st1 {
        fill: #fae04a;
      }

      .st2 {
        fill: #203863;
      }
    </style>
  </defs>
  <g>
    <path class="st2" d="M197.64,367.48h23.49v61.52c0,5.15-.81,9.32-2.42,12.51-1.58,3.34-4.21,6.37-7.89,9.07-4.96,3.61-10.99,5.41-18.08,5.41-8.04,0-14.78-1.99-20.23-5.97-6.91-5.07-10.37-13.18-10.37-24.34v-58.2h23.49v56.11c0,3.79.46,6.48,1.38,8.06.92,1.58,2.47,2.37,4.65,2.37s3.81-.73,4.68-2.2c.86-1.54,1.3-4.26,1.3-8.17v-56.17Z"/>
    <path class="st2" d="M300.93,454.46h-25.41l-11.61-30.98c-.11-.53-.31-1.22-.59-2.08-.28-.86-.63-1.9-1.04-3.1l.17,5.75v30.42h-23.38v-86.98h24.06c10.59,0,18.51,2.08,23.77,6.25,6.68,5.33,10.03,12.92,10.03,22.76,0,10.52-4.49,17.78-13.46,21.8l17.46,36.17ZM262.57,407.76h1.58c2.7,0,4.96-1.03,6.76-3.1,1.8-2.06,2.7-4.69,2.7-7.89,0-6.5-3.4-9.75-10.2-9.75h-.85v20.73Z"/>
    <path class="st2" d="M378.3,454.46h-25.35l-15.61-40.11.62,40.11h-23.49v-86.98h23.49l-.62,37.29,13.86-37.29h24.79l-18.76,41.97,21.07,45.01Z"/>
    <path class="st2" d="M453.48,454.46h-24.28l-1.75-11.04h-15.83l-1.91,11.04h-24.28l20.9-86.98h28.73l18.42,86.98ZM424.69,424.77l-1.52-10.14s-.11-.54-.23-1.52c-.08-.82-.47-4.09-1.18-9.8-.08-.64-.17-1.51-.28-2.62-.11-1.11-.26-2.51-.45-4.2l-.73-8.23c-.08.79-.18,1.67-.31,2.65-.13.98-.27,2.05-.42,3.21-.26,2.33-.45,3.94-.56,4.84s-.19,1.45-.23,1.63l-1.63,10.54-2.37,13.63h9.92Z"/>
  </g>
  <g>
    <path class="st0" d="M66.09,480.67c-1.93,2.76-2.9,6.97-2.9,12.64,0,10.47,3.96,15.71,11.87,15.71,1.57,0,2.99-.29,4.25-.86v-3.92c-1.21.44-2.25.66-3.11.66-4.94,0-7.41-3.91-7.41-11.73,0-2.17.14-4.06.42-5.65.28-1.59.71-2.91,1.29-3.95s1.32-1.81,2.21-2.31c.89-.5,1.96-.75,3.21-.75.91,0,2.04.27,3.39.8v-3.84c-1.43-.63-2.88-.94-4.35-.94-3.98,0-6.94,1.38-8.87,4.14Z"/>
    <path class="st0" d="M102.6,479.28c-1.59-1.82-4.02-2.73-7.29-2.73-3.66,0-6.26,1.18-7.79,3.53-1.52,2.34-2.28,6.32-2.28,11.96,0,6.32.77,10.72,2.3,13.19,1.55,2.53,4.23,3.8,8.02,3.8s6.18-1.18,7.72-3.53c1.53-2.35,2.3-6.32,2.3-11.92,0-3.99-.24-7.03-.71-9.11-.47-2.24-1.23-3.97-2.28-5.19ZM99.09,502.74c-.66,1.59-1.87,2.38-3.64,2.38s-3.04-.85-3.69-2.54c-.64-1.79-.96-5-.96-9.64,0-5.03.3-8.38.91-10.05.62-1.65,1.87-2.48,3.75-2.48s3.11.9,3.72,2.71c.61,1.79.91,5.43.91,10.91,0,4.24-.33,7.15-.99,8.72Z"/>
    <path class="st0" d="M126.32,488.78c0,1.75.1,3.62.3,5.6.2,1.98.51,4.2.94,6.65-1.16-4.05-2.51-7.86-4.02-11.43l-5.24-12.64h-4.91v31.67h5.19l-.28-13.81c0-.4,0-.75-.01-1.07,0-.31-.02-.58-.04-.8l-.28-3.92-.28-3.22c-.02-.18-.04-.39-.08-.65-.03-.25-.08-.56-.13-.91.1.36.19.67.27.94.08.27.13.51.16.7.4,1.53.85,2.99,1.33,4.39.48,1.39.99,2.76,1.53,4.08l5.9,14.26h4.93v-31.67h-5.29v11.82Z"/>
    <path class="st0" d="M149.59,491.5c-1.16-.94-2.11-1.75-2.85-2.42-.73-.67-1.26-1.22-1.58-1.64-.62-.79-.94-1.74-.94-2.85,0-1.26.44-2.26,1.32-3.02.88-.79,2.01-1.19,3.39-1.19,1.28,0,2.72.47,4.33,1.4v-4.16c-1.7-.72-3.49-1.09-5.36-1.09-2.7,0-4.85.73-6.45,2.19-1.59,1.45-2.38,3.41-2.38,5.89,0,1.83.41,3.35,1.22,4.55.42.62,1.07,1.33,1.95,2.15.88.82,1.98,1.76,3.32,2.83.86.7,1.58,1.33,2.15,1.9.57.57,1.02,1.07,1.34,1.51.62.92.94,1.95.94,3.1,0,1.33-.41,2.38-1.21,3.15-.81.77-1.93,1.16-3.37,1.16-1.54,0-3.24-.55-5.11-1.66v4.23c1.59,1,3.5,1.5,5.74,1.5,2.67,0,4.85-.77,6.55-2.32,1.7-1.59,2.56-3.6,2.56-6.05,0-1.8-.39-3.33-1.16-4.57-.78-1.28-2.24-2.81-4.38-4.57Z"/>
    <path class="st0" d="M174.96,499.95c0,2.05-.25,3.41-.76,4.08-.49.66-1.5.99-3.04.99s-2.56-.38-3.09-1.13c-.51-.75-.76-2.27-.76-4.55v-22.38h-5.16v22.38c0,3.46.5,5.8,1.49,7.02,1.43,1.78,3.9,2.67,7.41,2.67,3.19,0,5.56-.69,7.11-2.07,1.3-1.22,1.95-3.55,1.95-6.99v-23h-5.16v23Z"/>
    <polygon class="st0" points="194 476.96 188.73 476.96 188.73 508.63 202.6 508.63 202.6 505.02 194 505.02 194 476.96"/>
    <polygon class="st0" points="208.48 508.63 222.48 508.63 222.48 505.02 213.75 505.02 213.75 494.21 221.49 494.21 221.49 490.6 213.75 490.6 213.75 480.57 222.48 480.57 222.48 476.96 208.48 476.96 208.48 508.63"/>
    <path class="st0" d="M242.83,488.78c0,1.75.1,3.62.3,5.6.2,1.98.51,4.2.94,6.65-1.16-4.05-2.51-7.86-4.02-11.43l-5.24-12.64h-4.91v31.67h5.19l-.28-13.81c0-.4,0-.75-.01-1.07s-.02-.58-.04-.8l-.28-3.92-.28-3.22c-.02-.18-.04-.39-.08-.65-.03-.25-.08-.56-.13-.91.1.36.19.67.27.94.08.27.13.51.17.7.4,1.53.85,2.99,1.33,4.39.48,1.39.99,2.76,1.53,4.08l5.9,14.26h4.94v-31.67h-5.29v11.82Z"/>
    <polygon class="st0" points="255.77 476.96 255.77 480.57 266.22 480.57 254.38 508.63 272.35 508.63 272.35 504.9 261.24 504.9 272.98 476.96 255.77 476.96"/>
    <path class="st0" d="M284.45,476.96l-8.5,31.67h5.06l1.49-6.17h7.74l1.47,6.17h5.21l-8.38-31.67h-4.1ZM283.24,499.16l.96-4.06c.51-2.19.94-4.26,1.32-6.21.37-1.95.67-3.87.91-5.77.49,3.9,1.12,7.56,1.9,10.99l1.16,5.05h-6.25Z"/>
    <rect class="st0" x="315.93" y="476.96" width="5.26" height="31.67"/>
    <path class="st0" d="M342.74,488.78c0,1.75.1,3.62.3,5.6.2,1.98.51,4.2.94,6.65-1.16-4.05-2.51-7.86-4.02-11.43l-5.24-12.64h-4.91v31.67h5.19l-.28-13.81c0-.4,0-.75-.01-1.07,0-.31-.02-.58-.04-.8l-.28-3.92-.28-3.22c-.02-.18-.04-.39-.08-.65-.03-.25-.08-.56-.13-.91.1.36.19.67.27.94.08.27.13.51.16.7.4,1.53.85,2.99,1.33,4.39.48,1.39.99,2.76,1.53,4.08l5.9,14.26h4.93v-31.67h-5.29v11.82Z"/>
    <polygon class="st0" points="353.53 480.69 359.6 480.69 359.6 508.63 364.76 508.63 364.76 480.69 370.66 480.69 370.66 476.96 353.53 476.96 353.53 480.69"/>
    <polygon class="st0" points="376.16 508.63 390.16 508.63 390.16 505.02 381.42 505.02 381.42 494.21 389.17 494.21 389.17 490.6 381.42 490.6 381.42 480.57 390.16 480.57 390.16 476.96 376.16 476.96 376.16 508.63"/>
    <path class="st0" d="M406.94,495.59h4.58v1.5c0,2.85-.35,4.91-1.04,6.19-.67,1.2-1.85,1.81-3.52,1.81-1.82,0-3.06-.85-3.72-2.54s-.99-4.94-.99-9.74.32-8.03.96-9.87c.64-1.75,1.84-2.63,3.59-2.63,1.28,0,2.24.32,2.88.96.32.31.62.76.89,1.32.27.57.52,1.27.73,2.1l4.91-1.66c-.81-2.31-1.94-3.97-3.39-4.98-1.43-1-3.43-1.5-6-1.5-3.36,0-5.84,1.03-7.46,3.1-1.72,2.2-2.58,6.63-2.58,13.27,0,5.81.78,9.95,2.35,12.41,1.59,2.46,4.24,3.69,7.97,3.69s6.07-1.11,7.39-3.32c1.33-2.16,2-6.32,2-12.49v-1.23h-9.57v3.61Z"/>
    <path class="st0" d="M438.93,490.67c.94-1.37,1.4-3.2,1.4-5.47,0-2.95-.89-5.15-2.66-6.58-1.4-1.11-3.53-1.66-6.4-1.66h-6.93v31.67h5.26v-15.51l7.16,15.51h5.34l-7.19-15.4c1.74-.33,3.08-1.18,4.01-2.55ZM429.6,490.99v-10.52h.89c.83,0,1.54.1,2.14.31.6.21,1.09.53,1.47.96.38.44.66,1,.84,1.7.18.7.27,1.54.27,2.52,0,1.82-.42,3.11-1.26,3.88-.84.77-2.29,1.15-4.33,1.15Z"/>
    <path class="st0" d="M454.33,476.96l-8.5,31.67h5.06l1.49-6.17h7.74l1.47,6.17h5.21l-8.38-31.67h-4.1ZM453.12,499.16l.96-4.06c.51-2.19.95-4.26,1.32-6.21.37-1.95.67-3.87.91-5.77.49,3.9,1.12,7.56,1.9,10.99l1.16,5.05h-6.25Z"/>
    <polygon class="st0" points="468.54 480.69 474.62 480.69 474.62 508.63 479.78 508.63 479.78 480.69 485.67 480.69 485.67 476.96 468.54 476.96 468.54 480.69"/>
    <path class="st0" d="M500.11,476.96h-4.1l-8.5,31.67h5.06l1.49-6.17h7.74l1.47,6.17h5.21l-8.38-31.67ZM494.79,499.16l.96-4.06c.51-2.19.95-4.26,1.32-6.21.37-1.95.67-3.87.91-5.77.49,3.9,1.12,7.56,1.9,10.99l1.16,5.05h-6.25Z"/>
  </g>
  <g>
    <path class="st1" d="M510,420.19c9.04-28.63,20.02-56.54,29.52-85.02-13.48-.6-20.19-.35-33.38,1.19-4.84,7.8-8.98,15.41-12.47,22.87,7.85-1.63,15.95-2.86,24.69-3.65-8.1,9.38-14.71,18.6-19.74,27.42.04.04.08.07.12.11,4.67-.61,9.56-1.12,14.81-1.49.03.04.06.08.09.12-11.95,12.49-19.2,24.68-24.37,35.65,8.12.9,11.85,1.49,20.7,2.79Z"/>
    <path class="st1" d="M501.41,432.76c-2.86-4.33-7.13-6.89-12.46-7.83-5.17-.91-9.8,0-13.36,2.22-3.51,2.19-4.79,5.03-4.18,8.91.6,3.81,2.78,7.66,6.16,12.03,3.52,4.3,7.23,7.7,11.21,9.79,3.98,2.08,7.16,2.28,10.01.2,2.8-2.04,4.56-5.78,5.32-10.84.79-5.26.16-10.19-2.68-14.49Z"/>
    <path class="st1" d="M491.58,393.84c-3.76.57-7.35,1.2-11.1,1.92.82-6.73,1.89-13.57,3.33-20.7-5.92,1.34-11.74,2.85-17.82,4.57-.07-.35-.15-.65-.19-.96-.46-3.35-.86-6.73-1.26-10.15-.34-2.97-.71-5.96-.99-8.99-.39-4.35-.7-8.77-.92-13.27-6.79,2.34-10.13,3.66-16.68,6.57,7.28,21.06,15.95,41.59,22.11,63.04,8.98.29,12.71.61,20.18,1.41.84-7.63,1.9-15.41,3.34-23.45Z"/>
  </g>
  <path class="st2" d="M138.67,453.46c-9.69,1.34-19.44,2.94-29.2,5,.4-15.45.85-30.83,1.3-45.92-5.57.1-11.15.31-16.74.65.53,16.12,1.06,32.37,1.47,48.55-9.76,2.53-19.51,5.61-29.2,9.43-4.63-43.68-15.52-89.39-16.09-138,14.23,2.83,28.22,6.28,42.24,9.7.02,13.43.3,27.19.68,41.16,6.17.36,12.31.83,18.45,1.38.37-12.91.71-25.51.92-37.66,14.01,3.37,28,6.57,42.09,9.59-2.21,29.79-11.13,61.56-15.93,96.13Z"/>
</svg>