<svg xmlns="http://www.w3.org/2000/svg" viewBox="0 0 1200 630" width="1200" height="630">
  <defs>
    <!-- Background gradient -->
    <linearGradient id="bg" x1="0%" y1="0%" x2="100%" y2="100%">
      <stop offset="0%" stop-color="#0a1425"/>
      <stop offset="50%" stop-color="#132648"/>
      <stop offset="100%" stop-color="#0b1528"/>
    </linearGradient>
    <!-- Yellow glow top-right -->
    <radialGradient id="glow1" cx="78%" cy="22%" r="28%">
      <stop offset="0%" stop-color="#fae04a" stop-opacity="0.18"/>
      <stop offset="100%" stop-color="#fae04a" stop-opacity="0"/>
    </radialGradient>
    <!-- Subtle top-left light -->
    <radialGradient id="glow2" cx="12%" cy="15%" r="22%">
      <stop offset="0%" stop-color="#ffffff" stop-opacity="0.05"/>
      <stop offset="100%" stop-color="#ffffff" stop-opacity="0"/>
    </radialGradient>
    <!-- Bottom gradient bar -->
    <linearGradient id="bar" x1="0%" y1="0%" x2="100%" y2="0%">
      <stop offset="0%" stop-color="#fae04a" stop-opacity="0"/>
      <stop offset="20%" stop-color="#fae04a" stop-opacity="1"/>
      <stop offset="80%" stop-color="#fae04a" stop-opacity="1"/>
      <stop offset="100%" stop-color="#fae04a" stop-opacity="0"/>
    </linearGradient>
    <!-- Right panel gradient -->
    <linearGradient id="panel" x1="0%" y1="0%" x2="100%" y2="100%">
      <stop offset="0%" stop-color="#1a3060" stop-opacity="0.9"/>
      <stop offset="100%" stop-color="#0d1e3a" stop-opacity="0.7"/>
    </linearGradient>
  </defs>

  <!-- Background -->
  <rect width="1200" height="630" fill="url(#bg)"/>
  <rect width="1200" height="630" fill="url(#glow1)"/>
  <rect width="1200" height="630" fill="url(#glow2)"/>

  <!-- Subtle dot grid pattern -->
  <pattern id="dots" x="0" y="0" width="24" height="24" patternUnits="userSpaceOnUse">
    <circle cx="1" cy="1" r="1" fill="#ffffff" opacity="0.04"/>
  </pattern>
  <rect width="1200" height="630" fill="url(#dots)"/>

  <!-- Diagonal light beam -->
  <polygon points="700,0 1200,0 1200,630 820,630" fill="#fae04a" opacity="0.025"/>

  <!-- Right info panel -->
  <rect x="740" y="60" width="400" height="510" rx="24" fill="url(#panel)" opacity="0.8"/>
  <rect x="740" y="60" width="400" height="510" rx="24" fill="none" stroke="#ffffff" stroke-opacity="0.06" stroke-width="1"/>
  <!-- top accent line on panel -->
  <rect x="740" y="60" width="400" height="3" rx="1.5" fill="#fae04a" opacity="0.7"/>

  <!-- ====== LOGO (paths from lg_hurka.svg, viewBox 35 320 515 155) ====== -->
  <!-- Scale to fit ~320px wide at x=70, y=200. Original vb: 35..550 wide (515px), 320..475 tall (155px) -->
  <!-- Scale factor: 320/515 ≈ 0.621. Translate: x = 70 - 35*0.621 = 70 - 21.7 = 48.3 ; y = 200 - 320*0.621 = 200 - 198.7 = 1.3 -->
  <g transform="translate(48.3, 1.3) scale(0.621)">
    <!-- H -->
    <path fill="#ffffff" d="M138.67,453.46c-9.69,1.34-19.44,2.94-29.2,5,.4-15.45.85-30.83,1.3-45.92-5.57.1-11.15.31-16.74.65.53,16.12,1.06,32.37,1.47,48.55-9.76,2.53-19.51,5.61-29.2,9.43-4.63-43.68-15.52-89.39-16.09-138,14.23,2.83,28.22,6.28,42.24,9.7.02,13.43.3,27.19.68,41.16,6.17.36,12.31.83,18.45,1.38.37-12.91.71-25.51.92-37.66,14.01,3.37,28,6.57,42.09,9.59-2.21,29.79-11.13,61.56-15.93,96.13Z"/>
    <!-- U -->
    <path fill="#ffffff" d="M197.64,367.48h23.49v61.52c0,5.15-.81,9.32-2.42,12.51-1.58,3.34-4.21,6.37-7.89,9.07-4.96,3.61-10.99,5.41-18.08,5.41-8.04,0-14.78-1.99-20.23-5.97-6.91-5.07-10.37-13.18-10.37-24.34v-58.2h23.49v56.11c0,3.79.46,6.48,1.38,8.06.92,1.58,2.47,2.37,4.65,2.37s3.81-.73,4.68-2.2c.86-1.54,1.3-4.26,1.3-8.17v-56.17Z"/>
    <!-- R -->
    <path fill="#ffffff" d="M300.93,454.46h-25.41l-11.61-30.98c-.11-.53-.31-1.22-.59-2.08-.28-.86-.63-1.9-1.04-3.1l.17,5.75v30.42h-23.38v-86.98h24.06c10.59,0,18.51,2.08,23.77,6.25,6.68,5.33,10.03,12.92,10.03,22.76,0,10.52-4.49,17.78-13.46,21.8l17.46,36.17ZM262.57,407.76h1.58c2.7,0,4.96-1.03,6.76-3.1,1.8-2.06,2.7-4.69,2.7-7.89,0-6.5-3.4-9.75-10.2-9.75h-.85v20.73Z"/>
    <!-- K -->
    <path fill="#ffffff" d="M378.3,454.46h-25.35l-15.61-40.11.62,40.11h-23.49v-86.98h23.49l-.62,37.29,13.86-37.29h24.79l-18.76,41.97,21.07,45.01Z"/>
    <!-- A -->
    <path fill="#ffffff" d="M453.48,454.46h-24.28l-1.75-11.04h-15.83l-1.91,11.04h-24.28l20.9-86.98h28.73l18.42,86.98ZM424.69,424.77l-1.52-10.14s-.11-.54-.23-1.52c-.08-.82-.47-4.09-1.18-9.8-.08-.64-.17-1.51-.28-2.62-.11-1.11-.26-2.51-.45-4.2l-.73-8.23c-.08.79-.18,1.67-.31,2.65-.13.98-.27,2.05-.42,3.21-.26,2.33-.45,3.94-.56,4.84s-.19,1.45-.23,1.63l-1.63,10.54-2.37,13.63h9.92Z"/>
    <!-- bolt top -->
    <path fill="#fae04a" d="M510,420.19c9.04-28.63,20.02-56.54,29.52-85.02-13.48-.6-20.19-.35-33.38,1.19-4.84,7.8-8.98,15.41-12.47,22.87,7.85-1.63,15.95-2.86,24.69-3.65-8.1,9.38-14.71,18.6-19.74,27.42.04.04.08.07.12.11,4.67-.61,9.56-1.12,14.81-1.49.03.04.06.08.09.12-11.95,12.49-19.2,24.68-24.37,35.65,8.12.9,11.85,1.49,20.7,2.79Z"/>
    <!-- bolt bottom -->
    <path fill="#fae04a" d="M501.41,432.76c-2.86-4.33-7.13-6.89-12.46-7.83-5.17-.91-9.8,0-13.36,2.22-3.51,2.19-4.79,5.03-4.18,8.91.6,3.81,2.78,7.66,6.16,12.03,3.52,4.3,7.23,7.7,11.21,9.79,3.98,2.08,7.16,2.28,10.01.2,2.8-2.04,4.56-5.78,5.32-10.84.79-5.26.16-10.19-2.68-14.49Z"/>
    <!-- bolt mid -->
    <path fill="#fae04a" d="M491.58,393.84c-3.76.57-7.35,1.2-11.1,1.92.82-6.73,1.89-13.57,3.33-20.7-5.92,1.34-11.74,2.85-17.82,4.57-.07-.35-.15-.65-.19-.96-.46-3.35-.86-6.73-1.26-10.15-.34-2.97-.71-5.96-.99-8.99-.39-4.35-.7-8.77-.92-13.27-6.79,2.34-10.13,3.66-16.68,6.57,7.28,21.06,15.95,41.59,22.11,63.04,8.98.29,12.71.61,20.18,1.41.84-7.63,1.9-15.41,3.34-23.45Z"/>
  </g>

  <!-- Tagline below logo -->
  <text x="70" y="268" font-family="'Barlow Condensed', Arial Narrow, sans-serif" font-weight="700" font-size="22" fill="#fae04a" opacity="0.85" letter-spacing="3">CONSULENZA INTEGRATA</text>

  <!-- Divider line -->
  <rect x="70" y="288" width="320" height="2" fill="#fae04a" opacity="0.25"/>

  <!-- Main claim -->
  <text x="70" y="340" font-family="'Barlow Condensed', Arial Narrow, sans-serif" font-weight="800" font-size="52" fill="#ffffff" letter-spacing="-0.5">Soluzioni integrate.</text>
  <text x="70" y="398" font-family="'Barlow Condensed', Arial Narrow, sans-serif" font-weight="800" font-size="52" fill="#fae04a" letter-spacing="-0.5">Risultati immediati.</text>

  <!-- Sub description -->
  <text x="70" y="450" font-family="Arial, sans-serif" font-weight="400" font-size="20" fill="#ffffff" opacity="0.55">Luce &amp; Gas · Fotovoltaico · Comunità Energetica · Condomini</text>

  <!-- Location badge -->
  <rect x="70" y="480" width="220" height="36" rx="18" fill="#fae04a" opacity="0.12"/>
  <rect x="70" y="480" width="220" height="36" rx="18" fill="none" stroke="#fae04a" stroke-opacity="0.35" stroke-width="1"/>
  <text x="180" y="503" font-family="'Barlow Condensed', Arial Narrow, sans-serif" font-weight="700" font-size="16" fill="#fae04a" text-anchor="middle" letter-spacing="2">PESCARA · ABRUZZO</text>

  <!-- Right panel content -->
  <!-- Panel header label -->
  <text x="940" y="116" font-family="'Barlow Condensed', Arial Narrow, sans-serif" font-weight="700" font-size="13" fill="#fae04a" text-anchor="middle" letter-spacing="3" opacity="0.8">SERVIZI</text>

  <!-- Service items -->
  <!-- item 1 -->
  <rect x="770" y="140" width="10" height="10" rx="3" fill="#fae04a" opacity="0.9"/>
  <text x="796" y="151" font-family="Arial, sans-serif" font-weight="600" font-size="18" fill="#ffffff">Luce &amp; Gas</text>
  <text x="796" y="172" font-family="Arial, sans-serif" font-size="14" fill="#ffffff" opacity="0.45">Analisi consumi · Volture · Risparmio</text>

  <!-- item 2 -->
  <rect x="770" y="200" width="10" height="10" rx="3" fill="#fae04a" opacity="0.9"/>
  <text x="796" y="211" font-family="Arial, sans-serif" font-weight="600" font-size="18" fill="#ffffff">Fotovoltaico</text>
  <text x="796" y="232" font-family="Arial, sans-serif" font-size="14" fill="#ffffff" opacity="0.45">Progettazione · GSE · Manutenzione</text>

  <!-- item 3 -->
  <rect x="770" y="260" width="10" height="10" rx="3" fill="#fae04a" opacity="0.9"/>
  <text x="796" y="271" font-family="Arial, sans-serif" font-weight="600" font-size="18" fill="#ffffff">Comunità Energetica</text>
  <text x="796" y="292" font-family="Arial, sans-serif" font-size="14" fill="#ffffff" opacity="0.45">CER · Autoconsumo · Incentivi GSE</text>

  <!-- item 4 -->
  <rect x="770" y="320" width="10" height="10" rx="3" fill="#fae04a" opacity="0.9"/>
  <text x="796" y="331" font-family="Arial, sans-serif" font-weight="600" font-size="18" fill="#ffffff">Servizi ai Condomini</text>
  <text x="796" y="352" font-family="Arial, sans-serif" font-size="14" fill="#ffffff" opacity="0.45">GDPR · Messa a terra · Supporto tecnico</text>

  <!-- item 5 -->
  <rect x="770" y="380" width="10" height="10" rx="3" fill="#fae04a" opacity="0.9"/>
  <text x="796" y="391" font-family="Arial, sans-serif" font-weight="600" font-size="18" fill="#ffffff">Consulenza PA</text>
  <text x="796" y="412" font-family="Arial, sans-serif" font-size="14" fill="#ffffff" opacity="0.45">Audit · Ottimizzazione costi · Terna</text>

  <!-- Panel CTA box -->
  <rect x="770" y="440" width="340" height="90" rx="14" fill="#fae04a" opacity="0.1"/>
  <rect x="770" y="440" width="340" height="90" rx="14" fill="none" stroke="#fae04a" stroke-opacity="0.3" stroke-width="1"/>
  <text x="940" y="476" font-family="'Barlow Condensed', Arial Narrow, sans-serif" font-weight="800" font-size="20" fill="#ffffff" text-anchor="middle">Prima consulenza gratuita</text>
  <text x="940" y="500" font-family="Arial, sans-serif" font-size="15" fill="#fae04a" text-anchor="middle" opacity="0.9">hurka.it</text>

  <!-- Bottom yellow bar -->
  <rect x="0" y="624" width="1200" height="6" fill="url(#bar)"/>
</svg>
